<svg width="26" height="39" viewBox="0 0 26 39" fill="none" xmlns="http://www.w3.org/2000/svg">
<path d="M0.00938225 3.24297C0.00938225 3.55523 0.188133 3.90688 0.455633 4.14149L18 19.4928L0.455633 34.8441C0.187508 35.0787 0.00938225 35.4298 0.00938225 35.7427C0.00938225 36.0555 0.188133 36.4066 0.455633 36.6412L2.68751 38.5941C2.95563 38.8287 3.35688 38.9845 3.71438 38.9845C4.07188 38.9845 4.47313 38.8281 4.74126 38.5941L25.545 20.3908C25.8131 20.1562 25.9913 19.8051 25.9913 19.4923C25.9913 19.1795 25.8125 18.8284 25.545 18.5938L4.74126 0.390469C4.47313 0.15586 4.07188 0 3.71438 0C3.35688 0 2.95563 0.156407 2.68751 0.390469L0.455633 2.34336C0.187508 2.57797 0.00938225 2.89024 0.00938225 3.24188V3.24297Z" fill="#666666"/>
</svg>
